<svg t="1737530291795" class="icon" viewBox="0 0 1024 1024" version="1.1" xmlns="http://www.w3.org/2000/svg" p-id="1618" width="26" height="26"><path d="M48 0C21.418667 0 0 21.418667 0 48v928C0 1002.581333 21.418667 1024 48 1024h928c26.581333 0 48-21.418667 48-48V48C1024 21.418667 1002.581333 0 976 0z m740.821333 416c26.112 0 49.237333 1.578667 69.418667 4.736a272.213333 272.213333 0 0 1 55.722667 14.506667v104.874666a168.533333 168.533333 0 0 0-27.434667-15.402666 217.301333 217.301333 0 0 0-30.592-11.093334 232.661333 232.661333 0 0 0-60.842667-8.533333c-12.8 0-24.448 1.194667-34.944 3.669333a89.6 89.6 0 0 0-26.581333 10.325334c-7.253333 4.437333-12.8 9.770667-16.768 15.957333a37.888 37.888 0 0 0-5.973333 20.906667c0 8.362667 2.261333 15.914667 6.656 22.570666 4.437333 6.656 10.752 12.970667 18.901333 18.944s18.048 11.776 29.696 17.493334c11.648 5.76 24.832 11.690667 39.509333 17.749333 20.053333 8.405333 38.058667 17.365333 54.016 26.794667 15.957333 9.472 29.653333 20.181333 41.088 32.128 11.434667 11.904 20.138667 25.514667 26.197334 40.832 6.058667 15.317333 9.130667 33.109333 9.130666 53.461333 0 28.032-5.333333 51.626667-15.914666 70.656a129.408 129.408 0 0 1-43.178667 46.293333 186.88 186.88 0 0 1-63.445333 25.429334c-24.149333 5.12-49.621333 7.68-76.373334 7.68a423.082667 423.082667 0 0 1-78.506666-6.997334 236.544 236.544 0 0 1-64.512-21.034666v-112.213334a214.741333 214.741333 0 0 0 138.112 51.2c14.208 0 26.624-1.28 37.205333-3.84 10.624-2.56 19.456-6.144 26.581333-10.666666 7.082667-4.608 12.373333-9.984 15.914667-16.213334a43.648 43.648 0 0 0-3.157333-46.464 90.453333 90.453333 0 0 0-22.912-21.333333 238.805333 238.805333 0 0 0-34.432-18.944 1182.72 1182.72 0 0 0-42.965334-18.602667c-39.168-16.341333-68.352-36.352-87.594666-59.946666-19.2-23.594667-28.842667-52.138667-28.842667-85.546667 0-26.197333 5.248-48.682667 15.744-67.498667 10.496-18.816 24.746667-34.304 42.837333-46.464a191.744 191.744 0 0 1 62.72-26.837333 321.536 321.536 0 0 1 75.52-8.576z m-644.821333 8.021333h408.021333v92.416H405.589333v411.562667H289.664v-411.562667H144z" p-id="1619" fill="#6c757d"></path></svg>